#!OML:ASF C:\ViconDB\ViconDB\414\Spring2016\041811\Spring2016.ASF
:FULLY-SPECIFIED
:DEGREES
171
root 6.178 18.564 -25.3559 -176.72 -1.09098 -182.146
lowerback -0.905046 -4.53242 -7.95891
upperback -3.62204 -6.25753 1.07382
thorax -2.30493 -2.98456 5.57377
lowerneck -17.0201 -3.73684 -12.491
upperneck 24.678 -4.93244 15.6832
head 11.5907 -1.1094 7.43349
rclavicle 9.29629e-014 6.26172e-015
rhumerus -88.3977 -4.02031 -84.5241
rradius 96.3183
rwrist 11.4688
rhand -27.4035 -7.50927
rfingers 7.12502
rthumb -0.809758 -37.4875
lclavicle 9.29629e-014 6.26172e-015
lhumerus -44.7375 -33.7746 100.222
lradius 126.803
lwrist -23.2288
lhand -40.1057 4.43254
lfingers 7.12502
lthumb -13.0696 34.003
rfemur -35.5842 -7.90094 25.0426
rtibia 34.0612
rfoot -157.099 5.86753
rtoes -7.4186
lfemur 17.5647 -5.14331 -25.0665
ltibia 28.6633
lfoot 15.0155 7.07127
ltoes -2.44466
172
root 6.1813 18.5813 -25.9086 -176.912 -0.899539 -182.194
lowerback -1.10182 -4.35032 -8.00656
upperback -3.5398 -5.98602 1.18845
thorax -2.13306 -2.85439 5.70342
lowerneck -16.866 -3.93067 -12.8437
upperneck 24.471 -5.15122 15.8021
head 11.5342 -1.2404 7.49664
rclavicle 1.00635e-014 2.11706e-014
rhumerus -88.0682 -4.67096 -84.0189
rradius 96.8404
rwrist 10.7136
rhand -27.8476 -7.80867
rfingers 7.12502
rthumb -1.2387 -37.7848
lclavicle 1.00635e-014 2.11706e-014
lhumerus -46.4922 -33.1723 101.048
lradius 125.785
lwrist -21.817
lhand -39.0003 3.77399
lfingers 7.12502
lthumb -12.0039 33.4098
rfemur -35.1202 -9.04998 25.5203
rtibia 33.1871
rfoot -155.866 6.75098
rtoes -7.5425
lfemur 16.8443 -4.41576 -24.7366
ltibia 31.9687
lfoot 15.5953 6.20644
ltoes -1.42742
173
root 6.18233 18.5775 -26.4509 -177.31 -0.793035 -182.181
lowerback -0.915863 -4.16571 -7.80395
upperback -3.41899 -5.73815 1.14667
thorax -2.1704 -2.7321 5.56334
lowerneck -16.7866 -4.07182 -12.9643
upperneck 24.3203 -5.3599 15.9715
head 11.5089 -1.32961 7.54581
rclavicle 2.74447e-014 1.90833e-014
rhumerus -87.5152 -5.5018 -83.9701
rradius 97.1673
rwrist 9.59898
rhand -28.9269 -7.94595
rfingers 7.12502
rthumb -2.2811 -37.9135
lclavicle 2.74447e-014 1.90833e-014
lhumerus -48.3376 -32.1764 101.565
lradius 124.082
lwrist -21.7699
lhand -38.3696 3.84118
lfingers 7.12502
lthumb -11.3958 33.5115
rfemur -34.5472 -11.235 26.3412
rtibia 33.0969
rfoot -155.068 6.84356
rtoes -8.10399
lfemur 15.7472 -3.72324 -24.3111
ltibia 36.2993
lfoot 15.1312 5.14679
ltoes -1.94589
174
root 6.15837 18.5332 -26.9931 -177.307 -0.288098 -182.476
lowerback -1.37655 -3.86881 -7.64412
upperback -3.2755 -5.29536 1.03811
thorax -1.85134 -2.53215 5.32732
lowerneck -16.7831 -4.2113 -13.0698
upperneck 23.9707 -5.53436 15.9841
head 11.4117 -1.43267 7.51669
rclavicle -3.06874e-015 1.43125e-014
rhumerus -86.475 -6.1909 -83.9051
rradius 97.3827
rwrist 8.82497
rhand -29.3473 -8.54325
rfingers 7.12502
rthumb -2.68709 -38.5061
lclavicle -3.06874e-015 1.43125e-014
lhumerus -50.0388 -30.8461 102.143
lradius 121.992
lwrist -21.9204
lhand -38.0353 4.39176
lfingers 7.12502
lthumb -11.0733 34.0796
rfemur -34.4462 -13.2611 26.8628
rtibia 33.8662
rfoot -154.492 6.68754
rtoes -7.64397
lfemur 13.9448 -2.90397 -24.3934
ltibia 41.1835
lfoot 14.4242 4.69333
ltoes -1.21062
175
root 6.15037 18.4785 -27.5174 -177.79 0.283029 -182.563
lowerback -1.25407 -3.62531 -7.68186
upperback -2.91554 -4.73959 1.08486
thorax -1.60688 -2.17373 5.39849
lowerneck -16.787 -4.36006 -13.2497
upperneck 23.4795 -5.71519 16.0696
head 11.2699 -1.54253 7.51972
rclavicle -1.30949e-014 1.59028e-015
rhumerus -84.9926 -6.84286 -83.8382
rradius 97.3851
rwrist 8.91133
rhand -29.7649 -8.67276
rfingers 7.12502
rthumb -3.09039 -38.6301
lclavicle -1.30949e-014 1.59028e-015
lhumerus -51.2795 -29.1706 102.497
lradius 119.393
lwrist -22.2482
lhand -37.6493 4.88974
lfingers 7.12502
lthumb -10.701 34.5972
rfemur -33.4915 -13.3315 26.8858
rtibia 35.0834
rfoot -154.736 5.19568
rtoes -7.97578
lfemur 12.2614 -1.87703 -24.0537
ltibia 46.3898
lfoot 13.7171 4.24503
ltoes -1.39116
176
root 6.14444 18.3929 -28.0133 -178.633 1.0442 -182.998
lowerback -0.368471 -3.10343 -8.09219
upperback -2.53295 -4.13765 0.991017
thorax -1.77814 -1.88248 5.58511
lowerneck -16.8527 -4.52198 -13.2926
upperneck 22.9932 -5.92704 16.0702
head 11.142 -1.66192 7.4602
rclavicle 3.75206e-014 2.06736e-014
rhumerus -83.2992 -7.41797 -83.9339
rradius 97.276
rwrist 9.38031
rhand -29.8251 -8.76359
rfingers 7.12502
rthumb -3.14853 -38.7201
lclavicle 3.75206e-014 2.06736e-014
lhumerus -52.6945 -27.5198 102.911
lradius 116.493
lwrist -22.4528
lhand -37.746 6.43433
lfingers 7.12502
lthumb -10.7942 36.137
rfemur -31.9639 -12.4306 26.028
rtibia 36.5833
rfoot -154.645 3.89994
rtoes -9.20647
lfemur 10.6432 -0.655029 -23.9679
ltibia 51.7712
lfoot 12.7841 3.84086
ltoes -1.69339
177
root 6.11782 18.2732 -28.5207 -179.179 1.83927 -182.812
lowerback 0.0946339 -2.55325 -7.55418
upperback -2.23543 -3.44515 1.02958
thorax -1.86274 -1.5599 5.34505
lowerneck -16.9659 -4.72941 -13.4493
upperneck 22.6771 -6.18517 16.1437
head 11.1034 -1.79522 7.45776
rclavicle -2.51338e-014 -2.38542e-015
rhumerus -81.457 -7.8337 -83.9731
rradius 97.1408
rwrist 10.2569
rhand -29.3126 -8.82453
rfingers 7.12502
rthumb -2.65362 -38.7878
lclavicle -2.51338e-014 -2.38542e-015
lhumerus -53.9447 -25.7878 103.149
lradius 113.488
lwrist -21.4583
lhand -37.0007 6.46914
lfingers 7.12502
lthumb -10.0754 36.2079
rfemur -30.458 -12.357 25.8017
rtibia 38.1185
rfoot -154.723 5.02193
rtoes -15.2855
lfemur 8.64766 0.728418 -23.0962
ltibia 57.2301
lfoot 11.6341 3.0246
ltoes -2.91247
178
root 6.08649 18.1384 -29.0127 -179.835 2.49561 -181.915
lowerback 0.979306 -2.09561 -6.29933
upperback -1.97309 -2.88545 1.26664
thorax -2.21407 -1.30318 4.91782
lowerneck -16.9956 -4.85107 -13.3637
upperneck 22.3985 -6.34484 16.0024
head 11.0266 -1.88818 7.3411
rclavicle 2.97307e-014 9.14409e-015
rhumerus -79.555 -8.06285 -84.0599
rradius 96.9447
rwrist 11.8485
rhand -28.7425 -8.41693
rfingers 7.12502
rthumb -2.10304 -38.3863
lclavicle 2.97307e-014 9.14409e-015
lhumerus -55.0679 -23.8059 103.065
lradius 110.071
lwrist -21.097
lhand -36.6537 7.30918
lfingers 7.12502
lthumb -9.74059 37.0639
rfemur -28.7702 -13.0153 26.2802
rtibia 39.6583
rfoot -155.292 7.34499
rtoes -16.8823
lfemur 6.63787 2.09943 -21.2327
ltibia 62.6582
lfoot 10.4449 1.98962
ltoes -3.02243
179
root 6.05967 17.9852 -29.4904 -180.635 3.26902 -180.831
lowerback 2.16284 -1.65076 -5.17086
upperback -1.69756 -2.3239 1.70381
thorax -2.6913 -1.03531 4.76458
lowerneck -16.8501 -4.87217 -13.3954
upperneck 22.0062 -6.34467 15.8855
head 10.8491 -1.92603 7.27175
rclavicle -2.09097e-014 -9.93923e-015
rhumerus -77.4387 -7.80257 -84.434
rradius 96.8705
rwrist 12.3342
rhand -28.1583 -8.21474
rfingers 7.12502
rthumb -1.53877 -38.1889
lclavicle -2.09097e-014 -9.93923e-015
lhumerus -55.9945 -21.6516 102.954
lradius 106.192
lwrist -20.9217
lhand -36.5434 8.30944
lfingers 7.12502
lthumb -9.63408 38.0691
rfemur -26.913 -13.6664 27.105
rtibia 41.1024
rfoot -156.635 9.11628
rtoes -18.071
lfemur 4.69446 3.48692 -18.9812
ltibia 67.9402
lfoot 9.31005 0.882063
ltoes -3.5034
180
root 6.03282 17.8517 -29.9631 -181.407 3.97188 -179.654
lowerback 3.49648 -1.25168 -4.04701
upperback -1.4653 -1.77822 2.21885
thorax -3.28295 -0.765772 4.68223
lowerneck -16.4432 -4.79587 -13.4258
upperneck 21.4309 -6.22106 15.7813
head 10.5333 -1.91741 7.21431
rclavicle -4.72114e-014 8.74653e-015
rhumerus -75.2303 -7.45152 -84.7207
rradius 96.8701
rwrist 13.1536
rhand -27.2203 -8.1915
rfingers 7.12502
rthumb -0.632871 -38.1703
lclavicle -4.72114e-014 8.74653e-015
lhumerus -56.8385 -19.3444 102.785
lradius 101.859
lwrist -21.359
lhand -36.8005 9.89072
lfingers 7.12502
lthumb -9.88221 39.6388
rfemur -24.8815 -13.3032 27.8768
rtibia 42.4001
rfoot -158.355 10.9517
rtoes -18.1566
lfemur 2.67184 4.73339 -16.5037
ltibia 72.8731
lfoot 8.39924 -0.11559
ltoes -3.2609
181
root 6.00947 17.7205 -30.4273 -182.264 4.64486 -178.308
lowerback 4.68833 -0.846587 -2.74053
upperback -0.96577 -1.15462 2.76315
thorax -3.51811 -0.469796 4.4926
lowerneck -16.1252 -4.79766 -13.5238
upperneck 20.6106 -6.20192 15.7864
head 10.1767 -1.95585 7.18449
rclavicle -1.26104e-014 -4.77083e-015
rhumerus -72.5498 -7.06998 -85.1725
rradius 96.8521
rwrist 13.548
rhand -26.3142 -7.88451
rfingers 7.12502
rthumb 0.242289 -37.8641
lclavicle -1.26104e-014 -4.77083e-015
lhumerus -57.1933 -17.3354 102.551
lradius 97.4181
lwrist -20.7822
lhand -36.3454 9.93232
lfingers 7.12502
lthumb -9.4431 39.7008
rfemur -22.6333 -12.8288 28.821
rtibia 43.5114
rfoot -160.279 12.066
rtoes -17.1817
lfemur 0.717065 5.81703 -13.7965
ltibia 77.423
lfoot 7.41178 -1.06763
ltoes -3.6578
182
root 5.99815 17.6202 -30.8996 -182.86 5.14512 -176.832
lowerback 5.57344 -0.537471 -1.28876
upperback -0.458314 -0.597745 3.28091
thorax -3.55347 -0.203401 4.175
lowerneck -15.9911 -4.84311 -13.3456
upperneck 19.8518 -6.2543 15.5575
head 9.87634 -2.02407 7.01167
rclavicle 2.78299e-015 2.0276e-014
rhumerus -69.5753 -6.54591 -85.9971
rradius 96.7732
rwrist 13.5962
rhand -25.8503 -7.8938
rfingers 7.12502
rthumb 0.690366 -37.8724
lclavicle 2.78299e-015 2.0276e-014
lhumerus -57.2952 -15.3317 101.893
lradius 92.3745
lwrist -20.6049
lhand -37.243 10.4064
lfingers 7.12502
lthumb -10.3091 40.1338
rfemur -20.4239 -11.2543 29.9739
rtibia 44.408
rfoot -163.087 12.4296
rtoes -16.6154
lfemur -1.52975 6.68685 -10.8886
ltibia 81.5191
lfoot 6.36491 -2.06415
ltoes -5.19059
183
root 5.99619 17.5387 -31.3718 -183.288 5.4191 -175.567
lowerback 6.12159 -0.260999 -0.134451
upperback 0.120029 -0.084292 3.73349
thorax -3.30637 0.0510754 3.94793
lowerneck -16.1099 -4.95769 -13.1354
upperneck 19.1671 -6.40421 15.3958
head 9.6715 -2.11664 6.85425
rclavicle -2.30839e-014 4.53229e-014
rhumerus -66.2516 -5.93001 -86.88
rradius 96.8211
rwrist 13.6476
rhand -25.5109 -8.1173
rfingers 7.12502
rthumb 1.01812 -38.0946
lclavicle -2.30839e-014 4.53229e-014
lhumerus -57.1874 -13.6671 100.99
lradius 87.3676
lwrist -21.5886
lhand -36.2239 10.3318
lfingers 7.12502
lthumb -9.32589 40.1056
rfemur -18.3367 -9.28927 31.0573
rtibia 45.1855
rfoot -165.274 12.5652
rtoes -15.3674
lfemur -4.16281 7.25788 -8.33998
ltibia 85.209
lfoot 5.37867 -2.84697
ltoes -5.22126
184
root 5.97278 17.4542 -31.8332 -183.163 5.86456 -174.441
lowerback 6.27371 0.0637045 1.3613
upperback 0.43263 0.505623 3.97215
thorax -3.10088 0.342409 3.29515
lowerneck -16.409 -5.14999 -12.9675
upperneck 18.9773 -6.66208 15.2692
head 9.69455 -2.2355 6.7296
rclavicle -1.08415e-014 -7.27552e-014
rhumerus -62.9339 -5.11782 -87.8939
rradius 97.1033
rwrist 13.1998
rhand -25.3157 -8.51581
rfingers 7.12502
rthumb 1.20668 -38.4921
lclavicle -1.08415e-014 -7.27552e-014
lhumerus -57.5378 -12.3177 100.105
lradius 82.6159
lwrist -21.9471
lhand -35.8653 10.7355
lfingers 7.12502
lthumb -8.97987 40.5244
rfemur -16.9952 -8.1155 32.0034
rtibia 46.0063
rfoot -166.58 13.1891
rtoes -14.0738
lfemur -7.52867 8.03083 -6.32039
ltibia 88.5935
lfoot 4.35926 -3.22288
ltoes -5.65227
